<svg xmlns="http://www.w3.org/2000/svg" version="1.1" xmlns:xlink="http://www.w3.org/1999/xlink" xmlns:svgjs="http://svgjs.dev/svgjs" width="1440" height="560" preserveAspectRatio="none" viewBox="0 0 1440 560"><g mask="url(&quot;#SvgjsMask1653&quot;)" fill="none"><rect width="1440" height="560" x="0" y="0" fill="url(&quot;#SvgjsLinearGradient1654&quot;)"></rect><path d="M 0,203 C 57.6,247.6 172.8,419.2 288,426 C 403.2,432.8 460.8,237 576,237 C 691.2,237 748.8,452.4 864,426 C 979.2,399.6 1036.8,128.4 1152,105 C 1267.2,81.6 1382.4,268.2 1440,309L1440 560L0 560z" fill="rgba(54, 128, 205, 1)"></path><path d="M 0,165 C 96,190 288,300.2 480,290 C 672,279.8 768,100.4 960,114 C 1152,127.6 1344,309.2 1440,358L1440 560L0 560z" fill="rgba(65, 128, 197, 1)"></path></g><defs><mask id="SvgjsMask1653"><rect width="1440" height="560" fill="#ffffff"></rect></mask><linearGradient x1="15.28%" y1="-39.29%" x2="84.72%" y2="139.29%" gradientUnits="userSpaceOnUse" id="SvgjsLinearGradient1654"><stop stop-color="rgba(14, 42, 71, 1)" offset="0.3"></stop><stop stop-color="rgba(0, 92, 158, 1)" offset="0.32"></stop></linearGradient></defs></svg>